REM MD5 b21adb469a13a43c730603f0cbfe9d99
FILE "Contender (USA) (Demo).bin" BINARY
  TRACK 01 MODE2/2352
    INDEX 01 00:00:00
  TRACK 02 AUDIO
    INDEX 00 08:26:11
    INDEX 01 08:28:11
  TRACK 03 AUDIO
    INDEX 00 10:44:30
    INDEX 01 10:46:30
  TRACK 04 AUDIO
    INDEX 00 10:53:70
    INDEX 01 10:55:70
  TRACK 05 AUDIO
    INDEX 00 11:03:29
    INDEX 01 11:05:29
REM LEADOUT 14:06:60
